<svg width="200" height="200" viewBox="0 0 200 200"
     xmlns="http://www.w3.org/2000/svg">

  <!-- Shortened Spike/Base -->
  <path d="M85 150 L115 150 L115 160 L85 160 Z" fill="black"/>

  <!-- Riser -->
  <rect x="88" y="110" width="24" height="45" rx="3" fill="black"/>

  <!-- Body -->
  <rect x="70" y="90" width="60" height="25" rx="4" fill="black"/>

  <!-- Top spray bar -->
  <rect x="70" y="85" width="60" height="6" rx="3" fill="black"/>

  <!-- Nozzle holes -->
  <circle cx="80" cy="88" r="2" fill="black"/>
  <circle cx="90" cy="88" r="2" fill="black"/>
  <circle cx="100" cy="88" r="2" fill="black"/>
  <circle cx="110" cy="88" r="2" fill="black"/>
  <circle cx="120" cy="88" r="2" fill="black"/>

  <!-- Segmented water streams -->
  <circle cx="75" cy="75" r="2.2" fill="black"/>
  <circle cx="70" cy="65" r="2.0" fill="black"/>
  <circle cx="65" cy="55" r="1.8" fill="black"/>

  <circle cx="88" cy="73" r="2.2" fill="black"/>
  <circle cx="84" cy="63" r="2.0" fill="black"/>
  <circle cx="80" cy="53" r="1.8" fill="black"/>

  <circle cx="100" cy="72" r="2.2" fill="black"/>
  <circle cx="100" cy="60" r="2.0" fill="black"/>
  <circle cx="100" cy="48" r="1.8" fill="black"/>

  <circle cx="112" cy="73" r="2.2" fill="black"/>
  <circle cx="116" cy="63" r="2.0" fill="black"/>
  <circle cx="120" cy="53" r="1.8" fill="black"/>

  <circle cx="125" cy="75" r="2.2" fill="black"/>
  <circle cx="132" cy="65" r="2.0" fill="black"/>
  <circle cx="138" cy="55" r="1.8" fill="black"/>

  <!-- Thinner overlapping curved grass blades -->
  <path d="M50 160 Q52 140 54 160" stroke="black" stroke-width="1.5" fill="none"/>
  <path d="M53 160 Q55 142 57 160" stroke="black" stroke-width="1.5" fill="none"/>
  <path d="M56 160 Q58 138 60 160" stroke="black" stroke-width="1.5" fill="none"/>
  <path d="M59 160 Q61 142 63 160" stroke="black" stroke-width="1.5" fill="none"/>
  <path d="M62 160 Q64 140 66 160" stroke="black" stroke-width="1.5" fill="none"/>
  <path d="M65 160 Q67 142 69 160" stroke="black" stroke-width="1.5" fill="none"/>
  <path d="M68 160 Q70 138 72 160" stroke="black" stroke-width="1.5" fill="none"/>
  <path d="M71 160 Q73 142 75 160" stroke="black" stroke-width="1.5" fill="none"/>
  <path d="M74 160 Q76 140 78 160" stroke="black" stroke-width="1.5" fill="none"/>
  <path d="M77 160 Q79 142 81 160" stroke="black" stroke-width="1.5" fill="none"/>
  <path d="M80 160 Q82 138 84 160" stroke="black" stroke-width="1.5" fill="none"/>
  <path d="M83 160 Q85 142 87 160" stroke="black" stroke-width="1.5" fill="none"/>
  <path d="M86 160 Q88 140 90 160" stroke="black" stroke-width="1.5" fill="none"/>
  <path d="M89 160 Q91 142 93 160" stroke="black" stroke-width="1.5" fill="none"/>
  <path d="M92 160 Q94 138 96 160" stroke="black" stroke-width="1.5" fill="none"/>
  <path d="M95 160 Q97 142 99 160" stroke="black" stroke-width="1.5" fill="none"/>
  <path d="M98 160 Q100 140 102 160" stroke="black" stroke-width="1.5" fill="none"/>
  <path d="M101 160 Q103 142 105 160" stroke="black" stroke-width="1.5" fill="none"/>
  <path d="M104 160 Q106 138 108 160" stroke="black" stroke-width="1.5" fill="none"/>
  <path d="M107 160 Q109 142 111 160" stroke="black" stroke-width="1.5" fill="none"/>
  <path d="M110 160 Q112 140 114 160" stroke="black" stroke-width="1.5" fill="none"/>
  <path d="M113 160 Q115 142 117 160" stroke="black" stroke-width="1.5" fill="none"/>
  <path d="M116 160 Q118 138 120 160" stroke="black" stroke-width="1.5" fill="none"/>
  <path d="M119 160 Q121 142 123 160" stroke="black" stroke-width="1.5" fill="none"/>
  <path d="M122 160 Q124 140 126 160" stroke="black" stroke-width="1.5" fill="none"/>
  <path d="M125 160 Q127 142 129 160" stroke="black" stroke-width="1.5" fill="none"/>
  <path d="M128 160 Q130 138 132 160" stroke="black" stroke-width="1.5" fill="none"/>
  <path d="M131 160 Q133 142 135 160" stroke="black" stroke-width="1.5" fill="none"/>
  <path d="M134 160 Q136 140 138 160" stroke="black" stroke-width="1.5" fill="none"/>
  <path d="M137 160 Q139 142 141 160" stroke="black" stroke-width="1.5" fill="none"/>
  <path d="M140 160 Q142 138 144 160" stroke="black" stroke-width="1.5" fill="none"/>

</svg>
